<svg width="32" height="32" viewBox="0 0 32 32" fill="none" xmlns="http://www.w3.org/2000/svg">
<g clip-path="url(#clip0_2013_379)">
<path d="M31.9999 15.9106C31.9999 7.12348 24.8765 0 16.0893 0C7.30219 0 0.178711 7.12348 0.178711 15.9106C0.178711 23.852 5.99702 30.4344 13.6033 31.6279V20.5098H9.56349V15.9106H13.6033V12.4053C13.6033 8.41771 15.9787 6.21508 19.613 6.21508C21.3538 6.21508 23.1745 6.52584 23.1745 6.52584V10.4413H21.1683C19.1918 10.4413 18.5754 11.6678 18.5754 12.9261V15.9106H22.9881L22.2827 20.5098H18.5754V31.6279C26.1816 30.4344 31.9999 23.8521 31.9999 15.9106Z" fill="#1877F2"/>
<path d="M22.2826 20.5095L22.9881 15.9104H18.5753V12.9259C18.5753 11.6675 19.1918 10.4411 21.1683 10.4411H23.1745V6.5256C23.1745 6.5256 21.3537 6.21484 19.6129 6.21484C15.9787 6.21484 13.6033 8.41747 13.6033 12.4051V15.9104H9.56348V20.5095H13.6033V31.6277C14.4257 31.7566 15.2569 31.8212 16.0893 31.821C16.9218 31.8212 17.7529 31.7566 18.5753 31.6277V20.5095H22.2826Z" fill="white"/>
</g>
<defs>
<clipPath id="clip0_2013_379">
<rect width="31.8212" height="31.8212" fill="white" transform="translate(0.178711)"/>
</clipPath>
</defs>
</svg>
