<svg width="33" height="32" viewBox="0 0 33 32" fill="none" xmlns="http://www.w3.org/2000/svg">
<g clip-path="url(#clip0_2013_387)">
<path d="M24.8158 0H7.91074C3.79174 0 0.452637 3.33911 0.452637 7.4581V24.3631C0.452637 28.4821 3.79174 31.8212 7.91074 31.8212H24.8158C28.9348 31.8212 32.2739 28.4821 32.2739 24.3631V7.4581C32.2739 3.33911 28.9348 0 24.8158 0Z" fill="url(#paint0_radial_2013_387)"/>
<path d="M24.8158 0H7.91074C3.79174 0 0.452637 3.33911 0.452637 7.4581V24.3631C0.452637 28.4821 3.79174 31.8212 7.91074 31.8212H24.8158C28.9348 31.8212 32.2739 28.4821 32.2739 24.3631V7.4581C32.2739 3.33911 28.9348 0 24.8158 0Z" fill="url(#paint1_radial_2013_387)"/>
<path d="M16.3644 3.48047C12.9886 3.48047 12.5649 3.49526 11.2391 3.55555C9.91575 3.61621 9.01244 3.82565 8.22214 4.13305C7.40448 4.45052 6.711 4.87526 6.02013 5.56638C5.32864 6.25737 4.9039 6.95085 4.58544 7.76813C4.27717 8.55869 4.06748 9.46236 4.00793 10.7851C3.94864 12.111 3.93311 12.5349 3.93311 15.9108C3.93311 19.2867 3.94802 19.709 4.00818 21.0348C4.06909 22.3582 4.27854 23.2615 4.58569 24.0518C4.9034 24.8694 5.32814 25.5629 6.01926 26.2538C6.71001 26.9453 7.40348 27.371 8.22052 27.6885C9.01145 27.9959 9.91488 28.2053 11.2379 28.266C12.5639 28.3263 12.9872 28.3411 16.3629 28.3411C19.7391 28.3411 20.1614 28.3263 21.4872 28.266C22.8106 28.2053 23.7148 27.9959 24.5058 27.6885C25.3231 27.371 26.0155 26.9453 26.7062 26.2538C27.3977 25.5629 27.8223 24.8694 28.1409 24.0521C28.4464 23.2615 28.6562 22.3579 28.7184 21.0351C28.7779 19.7093 28.7934 19.2867 28.7934 15.9108C28.7934 12.5349 28.7779 12.1112 28.7184 10.7853C28.6562 9.46199 28.4464 8.55881 28.1409 7.7685C27.8223 6.95085 27.3977 6.25737 26.7062 5.56638C26.0148 4.87501 25.3233 4.45027 24.505 4.13318C23.7126 3.82565 22.8088 3.61608 21.4855 3.55555C20.1596 3.49526 19.7374 3.48047 16.3605 3.48047H16.3644ZM15.2493 5.72051C15.5803 5.72001 15.9496 5.72051 16.3644 5.72051C19.6834 5.72051 20.0767 5.73244 21.3873 5.79198C22.5992 5.84742 23.257 6.04991 23.6952 6.22008C24.2753 6.44531 24.6889 6.71467 25.1237 7.14985C25.5587 7.58491 25.828 7.99921 26.0538 8.57932C26.224 9.01687 26.4267 9.67467 26.4819 10.8866C26.5415 12.197 26.5544 12.5905 26.5544 15.9079C26.5544 19.2253 26.5415 19.6189 26.4819 20.9292C26.4265 22.1411 26.224 22.7989 26.0538 23.2366C25.8286 23.8167 25.5587 24.2298 25.1237 24.6646C24.6886 25.0996 24.2756 25.3689 23.6952 25.5942C23.2575 25.7652 22.5992 25.9671 21.3873 26.0226C20.0769 26.0821 19.6834 26.095 16.3644 26.095C13.0453 26.095 12.6519 26.0821 11.3416 26.0226C10.1297 25.9666 9.47186 25.7642 9.03333 25.594C8.45334 25.3686 8.03891 25.0994 7.60386 24.6643C7.1688 24.2293 6.89956 23.816 6.67371 23.2356C6.50354 22.7979 6.3008 22.1401 6.24561 20.9282C6.18607 19.6178 6.17414 19.2243 6.17414 15.9048C6.17414 12.5853 6.18607 12.1939 6.24561 10.8835C6.30105 9.67156 6.50354 9.01376 6.67371 8.57559C6.89907 7.99548 7.1688 7.58118 7.60398 7.14613C8.03916 6.71107 8.45334 6.44171 9.03345 6.21598C9.47162 6.04506 10.1297 5.84307 11.3416 5.78738C12.4883 5.73555 12.9327 5.72001 15.2493 5.7174V5.72051ZM22.9996 7.78441C22.1761 7.78441 21.508 8.45191 21.508 9.27554C21.508 10.099 22.1761 10.7672 22.9996 10.7672C23.8231 10.7672 24.4912 10.099 24.4912 9.27554C24.4912 8.45204 23.8231 7.78392 22.9996 7.78392V7.78441ZM16.3644 9.52725C12.8392 9.52725 9.981 12.3854 9.981 15.9108C9.981 19.4361 12.8392 22.2929 16.3644 22.2929C19.8897 22.2929 22.7469 19.4361 22.7469 15.9108C22.7469 12.3856 19.8895 9.52725 16.3641 9.52725H16.3644ZM16.3644 11.7673C18.6527 11.7673 20.5079 13.6222 20.5079 15.9108C20.5079 18.199 18.6527 20.0542 16.3644 20.0542C14.0761 20.0542 12.221 18.199 12.221 15.9108C12.221 13.6222 14.076 11.7673 16.3644 11.7673Z" fill="white"/>
</g>
<defs>
<radialGradient id="paint0_radial_2013_387" cx="0" cy="0" r="1" gradientUnits="userSpaceOnUse" gradientTransform="translate(8.90515 34.2721) rotate(-90) scale(31.5372 29.3321)">
<stop stop-color="#FFDD55"/>
<stop offset="0.1" stop-color="#FFDD55"/>
<stop offset="0.5" stop-color="#FF543E"/>
<stop offset="1" stop-color="#C837AB"/>
</radialGradient>
<radialGradient id="paint1_radial_2013_387" cx="0" cy="0" r="1" gradientUnits="userSpaceOnUse" gradientTransform="translate(-4.87754 2.29225) rotate(78.681) scale(14.0973 58.1095)">
<stop stop-color="#3771C8"/>
<stop offset="0.128" stop-color="#3771C8"/>
<stop offset="1" stop-color="#6600FF" stop-opacity="0"/>
</radialGradient>
<clipPath id="clip0_2013_387">
<rect width="31.8212" height="31.8212" fill="white" transform="translate(0.452637)"/>
</clipPath>
</defs>
</svg>
