<svg width="32" height="32" viewBox="0 0 32 32" fill="none" xmlns="http://www.w3.org/2000/svg">
<g clip-path="url(#clip0_2013_392)">
<path d="M24.3631 0H7.4581C3.33911 0 0 3.33911 0 7.4581V24.3631C0 28.4821 3.33911 31.8212 7.4581 31.8212H24.3631C28.4821 31.8212 31.8212 28.4821 31.8212 24.3631V7.4581C31.8212 3.33911 28.4821 0 24.3631 0Z" fill="white"/>
<path d="M24.3631 0H7.4581C3.33911 0 0 3.33911 0 7.4581V24.3631C0 28.4821 3.33911 31.8212 7.4581 31.8212H24.3631C28.4821 31.8212 31.8212 28.4821 31.8212 24.3631V7.4581C31.8212 3.33911 28.4821 0 24.3631 0Z" fill="#0A66C2"/>
<path d="M22.9603 27.0588H26.5986C26.7305 27.0588 26.8569 27.0064 26.9502 26.9132C27.0434 26.82 27.0958 26.6935 27.0958 26.5617L27.0977 18.8746C27.0977 14.8568 26.2319 11.7686 21.5367 11.7686C19.7518 11.7022 18.0687 12.6223 17.1604 14.1586C17.156 14.1661 17.1492 14.1719 17.1411 14.1752C17.1331 14.1784 17.1242 14.179 17.1158 14.1767C17.1074 14.1744 17.1 14.1695 17.0947 14.1626C17.0894 14.1557 17.0865 14.1473 17.0864 14.1386V12.6367C17.0864 12.5048 17.034 12.3783 16.9408 12.2851C16.8476 12.1919 16.7211 12.1395 16.5892 12.1395H13.1365C13.0046 12.1395 12.8782 12.1919 12.7849 12.2851C12.6917 12.3783 12.6393 12.5048 12.6393 12.6367V26.5609C12.6393 26.6928 12.6917 26.8193 12.7849 26.9125C12.8782 27.0058 13.0046 27.0582 13.1365 27.0582H16.7746C16.9064 27.0582 17.0329 27.0058 17.1261 26.9125C17.2194 26.8193 17.2718 26.6928 17.2718 26.5609V19.678C17.2718 17.7318 17.6409 15.847 20.0538 15.847C22.4323 15.847 22.4631 18.074 22.4631 19.804V26.5616C22.4631 26.6934 22.5155 26.8199 22.6087 26.9132C22.702 27.0064 22.8284 27.0588 22.9603 27.0588ZM4.72339 7.41203C4.72339 8.88674 5.93744 10.1002 7.41228 10.1002C8.88675 10.1001 10.1001 8.88587 10.1001 7.41141C10.0998 5.93694 8.88638 4.72363 7.41179 4.72363C5.93682 4.72363 4.72339 5.93731 4.72339 7.41203ZM5.5884 27.0588H9.23131C9.36318 27.0588 9.48965 27.0064 9.58289 26.9132C9.67614 26.8199 9.72852 26.6934 9.72852 26.5616V12.6367C9.72852 12.5048 9.67614 12.3783 9.58289 12.2851C9.48965 12.1919 9.36318 12.1395 9.23131 12.1395H5.5884C5.45654 12.1395 5.33007 12.1919 5.23683 12.2851C5.14358 12.3783 5.0912 12.5048 5.0912 12.6367V26.5616C5.0912 26.6934 5.14358 26.8199 5.23683 26.9132C5.33007 27.0064 5.45654 27.0588 5.5884 27.0588Z" fill="white"/>
</g>
<defs>
<clipPath id="clip0_2013_392">
<rect width="31.8212" height="31.8212" fill="white"/>
</clipPath>
</defs>
</svg>
