<svg width="33" height="32" viewBox="0 0 33 32" fill="none" xmlns="http://www.w3.org/2000/svg">
<g clip-path="url(#clip0_2013_382)">
<path d="M25.0894 0H8.18442C4.06542 0 0.726318 3.33911 0.726318 7.4581V24.3631C0.726318 28.4821 4.06542 31.8212 8.18442 31.8212H25.0894C29.2084 31.8212 32.5475 28.4821 32.5475 24.3631V7.4581C32.5475 3.33911 29.2084 0 25.0894 0Z" fill="white"/>
<path d="M25.0894 0H8.18442C4.06542 0 0.726318 3.33911 0.726318 7.4581V24.3631C0.726318 28.4821 4.06542 31.8212 8.18442 31.8212H25.0894C29.2084 31.8212 32.5475 28.4821 32.5475 24.3631V7.4581C32.5475 3.33911 29.2084 0 25.0894 0Z" fill="#1D9BF0"/>
<path d="M25.5334 11.3629C25.5471 11.5601 25.5471 11.7574 25.5471 11.9565C25.5471 18.0221 20.9295 25.0175 12.4861 25.0175V25.0138C9.99171 25.0174 7.54904 24.303 5.44971 22.956C5.81259 22.9995 6.17679 23.0216 6.54232 23.0222C8.60971 23.0239 10.6176 22.3305 12.2434 21.0534C11.2855 21.0353 10.3573 20.7183 9.58838 20.1467C8.81948 19.5752 8.24837 18.7777 7.95488 17.8657C8.64261 17.9984 9.35162 17.9713 10.0272 17.7866C7.88577 17.3539 6.34505 15.4724 6.34505 13.2872V13.229C6.98345 13.5846 7.69792 13.7816 8.42835 13.8035C6.41143 12.4555 5.78967 9.77217 7.00758 7.6742C8.15994 9.09244 9.5978 10.2524 11.2277 11.0786C12.8577 11.9048 14.6432 12.3789 16.4683 12.47C16.2863 11.6867 16.3132 10.8694 16.5462 10.0997C16.7793 9.33006 17.2103 8.63508 17.7962 8.08428C19.6451 6.34629 22.5529 6.43541 24.2909 8.28328C25.3188 8.08034 26.3046 7.70348 27.2059 7.16892C26.8632 8.23178 26.1461 9.13398 25.1879 9.70766C26.0979 9.60035 26.9865 9.35677 27.824 8.98509C27.208 9.90769 26.4323 10.7128 25.5334 11.3629Z" fill="white"/>
</g>
<defs>
<clipPath id="clip0_2013_382">
<rect width="31.8212" height="31.8212" fill="white" transform="translate(0.726318)"/>
</clipPath>
</defs>
</svg>
